<svg width="14" height="12" viewBox="0 0 14 12" fill="none" xmlns="http://www.w3.org/2000/svg">
<path d="M7.16267 0.666626C7.51867 0.668626 8.40933 0.677293 9.356 0.715293L9.692 0.729959C10.6447 0.774626 11.5967 0.851959 12.0693 0.983293C12.6993 1.16063 13.194 1.67663 13.3613 2.33129C13.628 3.37129 13.6613 5.39929 13.6653 5.89063L13.666 5.99196V6.10796C13.6613 6.59929 13.628 8.62796 13.3613 9.66729C13.192 10.324 12.6967 10.8406 12.0693 11.0153C11.5967 11.1466 10.6447 11.224 9.692 11.2686L9.356 11.284C8.40933 11.3213 7.51867 11.3306 7.16267 11.332L7.006 11.3326H6.836C6.08267 11.328 2.932 11.294 1.92933 11.0153C1.3 10.838 0.804665 10.322 0.637332 9.66729C0.370665 8.62729 0.337332 6.59929 0.333332 6.10796V5.89063C0.337332 5.39929 0.370665 3.37063 0.637332 2.33129C0.806665 1.67463 1.302 1.15796 1.93 0.983959C2.932 0.704626 6.08333 0.670626 6.83667 0.666626H7.16267ZM5.666 3.66663V8.33329L9.666 5.99996L5.666 3.66663Z" fill="#737373"/>
</svg>
